<?xml version="1.0" encoding="UTF-8" standalone="no"?>
<!-- Created with Inkscape (http://www.inkscape.org/) -->

<svg
   width="120mm"
   height="120mm"
   viewBox="0 0 120 120"
   version="1.1"
   id="svg1"
   xml:space="preserve"
   inkscape:version="1.3.2 (091e20e, 2023-11-25, custom)"
   sodipodi:docname="Logo-White-Text-Purple-Background.svg"
   xmlns:inkscape="http://www.inkscape.org/namespaces/inkscape"
   xmlns:sodipodi="http://sodipodi.sourceforge.net/DTD/sodipodi-0.dtd"
   xmlns="http://www.w3.org/2000/svg"
   xmlns:svg="http://www.w3.org/2000/svg"><sodipodi:namedview
     id="namedview1"
     pagecolor="#ffffff"
     bordercolor="#000000"
     borderopacity="0.10588235"
     inkscape:showpageshadow="2"
     inkscape:pageopacity="0.0"
     inkscape:pagecheckerboard="0"
     inkscape:deskcolor="#d1d1d1"
     inkscape:document-units="mm"
     inkscape:zoom="2.1041947"
     inkscape:cx="214.33378"
     inkscape:cy="249.264"
     inkscape:window-width="2560"
     inkscape:window-height="1377"
     inkscape:window-x="-8"
     inkscape:window-y="897"
     inkscape:window-maximized="1"
     inkscape:current-layer="layer1" /><defs
     id="defs1" /><g
     inkscape:label="Layer 1"
     inkscape:groupmode="layer"
     id="layer1"><ellipse
       style="fill:#500866;fill-opacity:0.99215686;stroke-width:0.334599;stroke-dasharray:none"
       id="path8"
       cx="59.978405"
       cy="60.167011"
       rx="59.726925"
       ry="59.161087"
       inkscape:label="path8" /><path
       style="fill:#b395b2;fill-opacity:0.99215686;stroke-width:0.551429;stroke-dasharray:none"
       d="m 59.061795,354.38578 c -15.47973,-7.48906 -27.990454,-13.75985 -27.80161,-13.93509 0.188845,-0.17523 6.75911,-2.39639 14.60059,-4.93591 19.825583,-6.42064 80.874815,-27.05898 102.889715,-34.78296 18.68769,-6.55662 30.56276,-10.55268 63.68232,-21.42963 37.53587,-12.32734 56.78783,-20.84506 76.27621,-33.74721 12.88556,-8.53079 17.53021,-15.54765 18.14957,-27.41927 0.28157,-5.3969 -0.49048,-9.64468 -2.459,-13.52936 -3.53679,-6.97953 -14.9422,-15.18493 -27.04071,-19.45391 -7.82396,-2.76071 -28.81458,-7.5937 -43.30259,-9.97023 -8.3075,-1.36271 -13.36609,-2.02415 -42.29647,-5.5305 -17.8776,-2.16676 -28.65275,-3.95731 -43.13077,-7.16722 -20.14371,-4.46604 -30.70608,-8.10247 -40.70418,-14.01369 -14.341663,-8.47928 -18.167089,-18.44872 -11.878046,-30.95538 5.543166,-11.02337 31.104316,-26.878928 53.802996,-33.373957 9.60563,-2.748563 31.73494,-6.213064 50.22672,-7.863349 6.14249,-0.548182 22.128,-2.056017 35.52334,-3.350746 13.39535,-1.294728 24.53437,-2.354052 24.75337,-2.354052 0.21901,0 0.32749,2.19205 0.24108,4.871223 -0.0864,2.679172 -0.28996,9.766377 -0.45233,15.749343 l -0.29521,10.878118 -5.76663,-0.30743 c -6.45563,-0.34416 -33.21975,0.3556 -43.07307,1.12616 -14.84973,1.1613 -29.44759,3.37601 -40.96706,6.21531 -8.16483,2.01245 -9.54089,2.56613 -12.60954,5.07363 -3.6905,3.01564 -4.78548,6.10791 -3.22879,9.11822 0.89245,1.72581 4.8333,4.62545 7.83808,5.76718 3.2696,1.24235 15.33145,3.82056 32.06674,6.85423 49.36013,8.94772 54.48925,10.00843 71.37811,14.76108 14.58571,4.10454 24.66246,7.91159 37.00639,13.98121 13.124,6.4532 20.48248,11.63383 28.63081,20.15714 7.25077,7.58443 14.52623,17.86623 17.2186,24.33359 2.89443,6.95272 3.53901,16.25355 1.63826,23.63866 -3.83081,14.88408 -21.08707,34.54082 -41.45226,47.21859 -26.95226,16.77835 -87.38122,41.84108 -171.65697,71.19421 -14.52317,5.0584 -49.479007,16.92056 -49.608501,16.8345 -0.02981,-0.0198 -12.719434,-6.16344 -28.199164,-13.6525 z"
       id="path7"
       transform="scale(0.26458333)" /><text
       xml:space="preserve"
       style="font-size:3.6893px;line-height:0;letter-spacing:1.54642px;fill:#ffffff;fill-opacity:0.99215686;stroke-width:5.07204;stroke-dasharray:none"
       x="-16.639557"
       y="85.318123"
       id="text7"
       inkscape:transform-center-x="20.634191"
       inkscape:transform-center-y="-33.127617"
       transform="matrix(0.95376619,-0.33199726,0.3404997,0.92995017,0,0)"><tspan
         sodipodi:role="line"
         id="tspan7"
         style="font-style:normal;font-variant:normal;font-weight:bold;font-stretch:normal;font-size:3.6893px;line-height:0;font-family:sans-serif;-inkscape-font-specification:'sans-serif, ';font-variant-ligatures:normal;font-variant-caps:normal;font-variant-numeric:normal;font-variant-east-asian:normal;letter-spacing:1.54642px;stroke-width:5.07205;fill:#ffffff;fill-opacity:0.99215686"
         x="-16.639557"
         y="85.318123"
         rotate="0 0 0 0 0 0 0 0 0 0 0 0 0 0 0 0 0 0 0 0">S t r e a m L i n e</tspan></text><path
       style="fill:#b394b2;fill-opacity:1;stroke-width:0.307441"
       d="m 83.736525,40.777256 8.28621,-4.328193 c 36.617235,34.690513 -5.69733,48.872769 -14.722798,52.948209 13.846858,1.329 18.631028,2.51877 28.631783,3.9675 L 98.607305,100.93913 47.114487,92.931962 C 70.400017,81.610782 121.93523,70.973037 83.366615,41.137938"
       id="path3"
       sodipodi:nodetypes="ccccccc"
       inkscape:transform-center-x="-85.396864"
       inkscape:transform-center-y="13.504912" /><path
       style="fill:#ffffff;fill-opacity:1;stroke-width:0.307441"
       d="m 84.356797,39.942132 8.2862,-4.328193 c 36.617243,34.690513 -5.69733,48.872772 -14.722795,52.948205 13.846855,1.329001 18.631025,2.518777 28.631788,3.967507 L 99.227563,100.104 47.734749,92.096833 C 71.020282,80.775658 122.5555,70.137913 83.986877,40.302814"
       id="path3-3"
       sodipodi:nodetypes="ccccccc"
       inkscape:transform-center-x="-85.396864"
       inkscape:transform-center-y="13.504912" /><path
       style="fill:#ffffff;fill-opacity:0.992157;stroke-width:0.307;stroke-dasharray:none"
       d="m 68.458409,25.996602 0.209253,-8.416356 c 0,0 -8.440969,0.807428 -12.660117,1.224197 -2.781998,0.274808 -5.580093,0.429351 -8.344168,0.841636 -3.245373,0.484073 -6.545501,0.877076 -9.652028,1.912809 -2.833622,0.944743 -5.577951,2.23773 -8.056448,3.876623 -1.767882,1.169003 -3.654418,2.400961 -4.760615,4.182674 -0.689939,1.11126 -1.061044,2.477242 -0.99398,3.774609 0.04578,0.886444 0.393158,1.791055 0.941661,2.499404 1.195867,1.544361 3.036638,2.554412 4.812934,3.417551 3.164765,1.537823 6.702388,2.239271 10.149024,3.009483 8.567942,1.91466 17.501518,1.993819 26.052644,3.978643 3.334313,0.773937 6.860075,1.337279 9.785897,3.077994 1.764116,1.04956 3.638778,2.39055 4.391345,4.26719 0.762687,1.901884 0.548174,4.237686 -0.261572,6.120984 -0.720265,1.67518 -2.286002,2.946489 -3.818966,3.978643 C 66.369799,70.397296 54.499422,72.951545 42.92891,77.106838 31.231471,81.307717 7.5119702,89.093769 7.5119702,89.093769 L 22.7355,96.438949 c 0,0 35.669086,-11.649427 52.366859,-19.944209 3.747088,-1.861402 7.560229,-3.826818 10.621379,-6.638319 2.60414,-2.391761 5.119294,-5.171613 6.321103,-8.457112 0.637664,-1.743248 0.689054,-3.729299 0.315414,-5.543893 C 92.007714,54.143365 91.019111,52.58815 90.015069,51.142154 88.567927,49.057999 86.810048,47.140015 84.801563,45.559007 82.661799,43.874659 80.169428,42.631729 77.667301,41.519104 74.472623,40.098516 71.087956,39.09624 67.700618,38.194815 63.105645,36.97202 58.37532,36.297462 53.705704,35.382116 c -2.880669,-0.564675 -5.800207,-0.956499 -8.650398,-1.652861 -1.072989,-0.262154 -2.242437,-0.364971 -3.172684,-0.948558 -0.685656,-0.430143 -1.565996,-0.992191 -1.621751,-1.785288 -0.0559,-0.79509 0.716428,-1.498245 1.360179,-1.989323 0.934024,-0.712509 2.202486,-0.874363 3.348128,-1.173188 2.190801,-0.571441 4.447983,-0.88341 6.696257,-1.173188 2.238213,-0.288482 4.494207,-0.441731 6.748577,-0.561093 2.229422,-0.11804 4.463587,-0.144522 6.696269,-0.153021 1.116176,-0.0042 3.348128,0.051 3.348128,0.051 z"
       id="path6"
       sodipodi:nodetypes="ccaaaaaaaaaaaaaasccaaaaaaaaaaaaaaaaacc"
       inkscape:transform-center-x="-57.283682"
       inkscape:transform-center-y="2.9520911" /></g></svg>
