<?xml version="1.0" encoding="UTF-8" standalone="no"?>
<!-- Created with Inkscape (http://www.inkscape.org/) -->

<svg
   width="120mm"
   height="120mm"
   viewBox="0 0 120 120"
   version="1.1"
   id="svg1"
   xml:space="preserve"
   inkscape:version="1.3.2 (091e20e, 2023-11-25, custom)"
   sodipodi:docname="Logo-Light-Purple.svg"
   xmlns:inkscape="http://www.inkscape.org/namespaces/inkscape"
   xmlns:sodipodi="http://sodipodi.sourceforge.net/DTD/sodipodi-0.dtd"
   xmlns="http://www.w3.org/2000/svg"
   xmlns:svg="http://www.w3.org/2000/svg"><sodipodi:namedview
     id="namedview1"
     pagecolor="#ffffff"
     bordercolor="#000000"
     borderopacity="0.10588235"
     inkscape:showpageshadow="2"
     inkscape:pageopacity="0.0"
     inkscape:pagecheckerboard="0"
     inkscape:deskcolor="#d1d1d1"
     inkscape:document-units="mm"
     inkscape:zoom="2.1041947"
     inkscape:cx="214.33378"
     inkscape:cy="221.70001"
     inkscape:window-width="2560"
     inkscape:window-height="1377"
     inkscape:window-x="-8"
     inkscape:window-y="897"
     inkscape:window-maximized="1"
     inkscape:current-layer="layer1" /><defs
     id="defs1" /><g
     inkscape:label="Layer 1"
     inkscape:groupmode="layer"
     id="layer1"><path
       style="fill:#9a6585;fill-opacity:1;stroke-width:0.307441"
       d="m 85.371164,40.651515 8.286204,-4.328193 c 36.617232,34.690513 -5.697326,48.872772 -14.722795,52.948205 13.846855,1.329001 18.631025,2.518777 28.631777,3.967507 l -7.32441,7.574346 -51.49282,-8.007164 C 72.034653,81.485041 123.56986,70.847296 85.001247,41.012197"
       id="path3"
       sodipodi:nodetypes="ccccccc"
       inkscape:transform-center-x="-85.396864"
       inkscape:transform-center-y="13.504912" /><path
       style="fill:#9a6585;fill-opacity:1;stroke-width:0.307441"
       d="m 68.835632,27.002529 0.209253,-8.416356 c 0,0 -8.440969,0.807428 -12.660117,1.224197 -2.781998,0.274808 -5.580093,0.429351 -8.344168,0.841636 -3.245373,0.484073 -6.545501,0.877076 -9.652028,1.912809 -2.833622,0.944743 -5.577951,2.23773 -8.056448,3.876623 -1.767882,1.169003 -3.654418,2.400961 -4.760615,4.182674 -0.689939,1.11126 -1.061044,2.477242 -0.99398,3.774609 0.04578,0.886444 0.393158,1.791055 0.941661,2.499404 1.195867,1.544361 3.036638,2.554412 4.812934,3.417551 3.164765,1.537823 6.702388,2.239271 10.149024,3.009483 8.567942,1.91466 17.501518,1.993819 26.052644,3.978643 3.334313,0.773937 6.860075,1.337279 9.785897,3.077994 1.764116,1.04956 3.638778,2.39055 4.391345,4.26719 0.762687,1.901884 0.548174,4.237686 -0.261572,6.120984 -0.720265,1.67518 -2.286002,2.946489 -3.818966,3.978643 -9.883474,6.65461 -21.753851,9.208859 -33.324363,13.364152 C 31.608694,82.313644 7.8891929,90.099696 7.8891929,90.099696 l 15.2235301,7.34518 c 0,0 35.669086,-11.649427 52.366859,-19.944209 3.747088,-1.861402 7.560229,-3.826818 10.621379,-6.638319 2.60414,-2.391761 5.119294,-5.171613 6.321103,-8.457112 0.637664,-1.743248 0.689054,-3.729299 0.315414,-5.543893 -0.352541,-1.712051 -1.341144,-3.267266 -2.345186,-4.713262 -1.447142,-2.084155 -3.205021,-4.002139 -5.213506,-5.583147 -2.139764,-1.684348 -4.632135,-2.927278 -7.134262,-4.039903 -3.194678,-1.420588 -6.579345,-2.422864 -9.966683,-3.324289 -4.594973,-1.222795 -9.325298,-1.897353 -13.994914,-2.812699 -2.880669,-0.564675 -5.800207,-0.956499 -8.650398,-1.652861 -1.072989,-0.262154 -2.242437,-0.364971 -3.172684,-0.948558 -0.685656,-0.430143 -1.565996,-0.992191 -1.621751,-1.785288 -0.0559,-0.79509 0.716428,-1.498245 1.360179,-1.989323 0.934024,-0.712509 2.202486,-0.874363 3.348128,-1.173188 2.190801,-0.571441 4.447983,-0.88341 6.696257,-1.173188 2.238213,-0.288482 4.494207,-0.441731 6.748577,-0.561093 2.229422,-0.11804 4.463587,-0.144522 6.696269,-0.153021 1.116176,-0.0042 3.348128,0.051 3.348128,0.051 z"
       id="path6"
       sodipodi:nodetypes="ccaaaaaaaaaaaaaasccaaaaaaaaaaaaaaaaacc"
       inkscape:transform-center-x="-57.283682"
       inkscape:transform-center-y="2.9520911" /><text
       xml:space="preserve"
       style="font-size:3.6893px;line-height:0;letter-spacing:1.54642px;fill:#9a6485;fill-opacity:0.988235;stroke-width:5.07204;stroke-dasharray:none"
       x="-16.639557"
       y="85.318123"
       id="text7"
       inkscape:transform-center-x="20.634191"
       inkscape:transform-center-y="-33.127617"
       transform="matrix(0.95376619,-0.33199725,0.3404997,0.92995017,0,0)"><tspan
         sodipodi:role="line"
         id="tspan7"
         style="font-style:normal;font-variant:normal;font-weight:bold;font-stretch:normal;font-size:3.6893px;line-height:0;font-family:sans-serif;-inkscape-font-specification:'sans-serif, ';font-variant-ligatures:normal;font-variant-caps:normal;font-variant-numeric:normal;font-variant-east-asian:normal;letter-spacing:1.54642px;stroke-width:5.07205"
         x="-16.639557"
         y="85.318123"
         rotate="0 0 0 0 0 0 0 0 0 0 0 0 0 0 0 0 0 0 0 0">S t r e a m L i n e</tspan></text></g></svg>
